name processed_emg.mot						
datacolumns 7						
datarows 51						
range 16.64 17.14						
endheader						
time	RGLTMED	    RRF	        RADDLONG	 RST	    RTA	        RGM
16.64	0.014105138	0.029615598	0.020902191	0.030273182	0.016861547	0.04896643
16.65	0.014324362	0.02983226	0.021130796	0.030150638	0.016831995	0.049331352
16.66	0.014543942	0.030041942	0.021356543	0.030029574	0.016800606	0.049681779
16.67	0.01476376	0.030244515	0.021579271	0.029910054	0.016767416	0.050017165
16.68	0.014983692	0.030439856	0.02179882	0.029792138	0.016732459	0.050336978
16.69	0.015203612	0.03062785	0.022015031	0.029675878	0.016695771	0.050640703
16.7	0.015423393	0.030808386	0.022227748	0.029561322	0.016657389	0.050927842
16.71	0.015642902	0.03098136	0.022436812	0.029448513	0.016617349	0.051197917
16.72	0.015862007	0.031146672	0.022642072	0.029337486	0.01657569	0.051450469
16.73	0.016080572	0.031304233	0.022843375	0.029228274	0.016532447	0.05168506
16.74	0.016298459	0.031453956	0.023040571	0.029120901	0.016487661	0.051901274
16.75	0.016515527	0.031595763	0.023233514	0.029015388	0.016441368	0.05209872
16.76	0.016731634	0.031729583	0.023422058	0.028911749	0.016393607	0.05227703
16.77	0.016946637	0.031855351	0.023606063	0.028809993	0.016344416	0.052435861
16.78	0.017160388	0.03197301	0.023785389	0.028710123	0.016293835	0.052574897
16.79	0.017372741	0.032082508	0.023959903	0.028612137	0.016241901	0.05269385
16.8	0.017583546	0.032183805	0.024129472	0.028516028	0.016188652	0.052792459
16.81	0.017792654	0.032276863	0.024293969	0.028421782	0.016134129	0.052870491
16.82	0.017999912	0.032361656	0.02445327	0.028329382	0.016078368	0.052927742
16.83	0.018205169	0.032438164	0.024607256	0.028238804	0.016021409	0.052964041
16.84	0.018408271	0.032506374	0.024755813	0.028150021	0.01596329	0.052979244
16.85	0.018609064	0.032566282	0.024898829	0.028062998	0.015904048	0.052973238
16.86	0.018807394	0.032617892	0.0250362	0.027977698	0.015843723	0.052945943
16.87	0.019003107	0.032661217	0.025167825	0.027894079	0.015782351	0.052897308
16.88	0.019196048	0.032696276	0.02529361	0.027812094	0.015719972	0.052827314
16.89	0.019386062	0.032723097	0.025413465	0.02773169	0.015656622	0.052735974
16.9	0.019572997	0.032741719	0.025527306	0.027652813	0.015592339	0.05262333
16.91	0.019756698	0.032752186	0.025635056	0.027575403	0.015527161	0.052489458
16.92	0.019937013	0.032754552	0.025736642	0.027499396	0.015461124	0.052334462
16.93	0.020113791	0.032748878	0.025831998	0.027424726	0.015394267	0.052158477
16.94	0.020286881	0.032735236	0.025921066	0.027351322	0.015326627	0.05196167
16.95	0.020456135	0.032713705	0.026003792	0.02727911	0.01525824	0.051744235
16.96	0.020621405	0.032684371	0.02608013	0.027208013	0.015189143	0.051506395
16.97	0.020782548	0.032647332	0.026150041	0.027137952	0.015119374	0.051248405
16.98	0.020939418	0.032602689	0.02621349	0.027068843	0.015048969	0.050970542
16.99	0.021091877	0.032550557	0.026270452	0.027000603	0.014977966	0.050673115
17	0.021239786	0.032491055	0.026320908	0.026933144	0.0149064	0.050356457
17.01	0.021383009	0.032424311	0.026364846	0.026866376	0.014834309	0.050020925
17.02	0.021521415	0.032350461	0.02640226	0.026800209	0.01476173	0.049666904
17.03	0.021654874	0.032269649	0.026433153	0.02673455	0.0146887	0.049294799
17.04	0.021783261	0.032182026	0.026457532	0.026669304	0.014615254	0.04890504
17.05	0.021906453	0.032087752	0.026475414	0.026604376	0.014541431	0.048498078
17.06	0.022024333	0.03198699	0.026486823	0.02653967	0.014467267	0.048074385
17.07	0.022136785	0.031879914	0.026491786	0.026475088	0.014392798	0.047634451
17.08	0.022243701	0.031766702	0.026490342	0.026410532	0.014318062	0.047178786
17.09	0.022344974	0.031647539	0.026482535	0.026345905	0.014243096	0.046707918
17.1	0.022440503	0.031522618	0.026468413	0.026281106	0.014167936	0.04622239
17.11	0.022530191	0.031392134	0.026448035	0.026216039	0.01409262	0.045722761
17.12	0.022613948	0.031256289	0.026421463	0.026150604	0.014017183	0.045209604
17.13	0.022691686	0.031115291	0.026388769	0.026084703	0.013941664	0.044683505
17.14	0.022763324	0.030969351	0.026350027	0.026018239	0.013866098	0.044145061
